<svg xmlns="http://www.w3.org/2000/svg" width="176.698" height="166" viewBox="0 0 176.698 166">
  <defs>
    <style>
      .cls-1 {
        fill: #ff9f00;
      }

      .cls-2 {
        fill: #fdbf00;
      }

      .cls-3 {
        fill: #ffe1ba;
      }

      .cls-4 {
        fill: #ffd396;
      }

      .cls-5 {
        fill: #ff7816;
      }

      .cls-6 {
        fill: #7d0;
      }

      .cls-7 {
        fill: #6b0;
      }
    </style>
  </defs>
  <g id="toast" transform="translate(0 -15.499)">
    <path id="Path_151" data-name="Path 151" class="cls-1" d="M21.825,260.129l15.294,2.7-1.8,10.2-15.294-2.7a5.177,5.177,0,0,0-6,4.2l-3.6,20.392a5.177,5.177,0,0,0,4.2,6l15.294,2.7-1.8,10.2-15.294-2.7a15.53,15.53,0,0,1-12.6-17.991l3.6-20.392A15.53,15.53,0,0,1,21.825,260.129Z" transform="translate(0 -160.048)"/>
    <path id="Path_152" data-name="Path 152" class="cls-2" d="M120.219,244.429,107.634,315.8a10.384,10.384,0,0,1-11.994,8.4l-40.785-7.192a10.384,10.384,0,0,1-8.4-11.994l12.585-71.373Z" transform="translate(-30.321 -142.859)"/>
    <path id="Path_153" data-name="Path 153" class="cls-1" d="M175.15,254.664l-12.585,71.373a10.384,10.384,0,0,1-11.994,8.4l-20.392-3.6,14.383-81.569Z" transform="translate(-85.252 -153.094)"/>
    <path id="Path_154" data-name="Path 154" class="cls-3" d="M137.4,192.714a15.51,15.51,0,0,1-17.991,12.6,15.2,15.2,0,0,1-10.653-7.556,20.525,20.525,0,0,1-27.733-4.89,15.2,15.2,0,0,1-12.595,3.457,15.53,15.53,0,0,1,5.394-30.589,15.74,15.74,0,0,1,6.628,2.956,20.713,20.713,0,0,1,37.114,6.544,15.74,15.74,0,0,1,7.239-.511A15.511,15.511,0,0,1,137.4,192.714Z" transform="translate(-36.403 -94.444)"/>
    <path id="Path_155" data-name="Path 155" class="cls-4" d="M210.126,193.319a15.51,15.51,0,0,1-17.991,12.6,15.2,15.2,0,0,1-10.653-7.556,20.711,20.711,0,0,1-14.838,3.061l7.192-40.785a20.749,20.749,0,0,1,16.454,15.2,15.74,15.74,0,0,1,7.239-.511A15.51,15.51,0,0,1,210.126,193.319Z" transform="translate(-109.133 -95.049)"/>
    <path id="Path_156" data-name="Path 156" class="cls-5" d="M419.736,260.129l-15.294,2.7,1.8,10.2,15.294-2.7a5.177,5.177,0,0,1,6,4.2l3.6,20.392a5.177,5.177,0,0,1-4.2,6l-15.294,2.7,1.8,10.2,15.294-2.7a15.53,15.53,0,0,0,12.6-17.991l-3.6-20.392A15.53,15.53,0,0,0,419.736,260.129Z" transform="translate(-264.863 -160.048)"/>
    <path id="Path_157" data-name="Path 157" class="cls-2" d="M312.688,233.642l12.585,71.373a10.384,10.384,0,0,1-8.4,11.994L276.09,324.2a10.384,10.384,0,0,1-11.994-8.4l-12.585-71.373Z" transform="translate(-164.711 -142.859)"/>
    <path id="Path_158" data-name="Path 158" class="cls-1" d="M370.733,233.642l12.585,71.373a10.384,10.384,0,0,1-8.4,11.994l-20.392,3.6-14.383-81.569Z" transform="translate(-222.755 -142.859)"/>
    <path id="Path_159" data-name="Path 159" class="cls-3" d="M300.476,178.334a15.51,15.51,0,0,1-12.6,17.991,15.2,15.2,0,0,1-12.595-3.457,20.525,20.525,0,0,1-27.733,4.89,15.2,15.2,0,0,1-10.653,7.556,15.53,15.53,0,0,1-5.394-30.589,15.74,15.74,0,0,1,7.239.511,20.713,20.713,0,0,1,37.114-6.544,15.736,15.736,0,0,1,6.628-2.956A15.508,15.508,0,0,1,300.476,178.334Z" transform="translate(-143.202 -94.447)"/>
    <path id="Path_160" data-name="Path 160" class="cls-4" d="M369.8,178.334a15.51,15.51,0,0,1-12.6,17.991,15.2,15.2,0,0,1-12.595-3.457,20.711,20.711,0,0,1-12.9,7.951l-7.192-40.785a20.748,20.748,0,0,1,20.661,8.657,15.736,15.736,0,0,1,6.628-2.956A15.509,15.509,0,0,1,369.8,178.334Z" transform="translate(-212.521 -94.446)"/>
    <path id="Path_161" data-name="Path 161" class="cls-6" d="M251.352,20.676V31.029a5.177,5.177,0,0,1-10.353,0V20.676a5.177,5.177,0,0,1,10.353,0Z" transform="translate(-157.827)"/>
    <path id="Path_162" data-name="Path 162" class="cls-7" d="M295.571,67.567a5.177,5.177,0,0,1-3.66-8.837l7.32-7.32a5.176,5.176,0,1,1,7.32,7.32l-7.32,7.32A5.16,5.16,0,0,1,295.571,67.567Z" transform="translate(-190.175 -22.525)"/>
    <path id="Path_163" data-name="Path 163" class="cls-6" d="M182.89,67.567a5.159,5.159,0,0,1-3.66-1.517l-7.32-7.32a5.176,5.176,0,1,1,7.32-7.32l7.32,7.32a5.177,5.177,0,0,1-3.66,8.837Z" transform="translate(-111.588 -22.525)"/>
    <path id="Path_164" data-name="Path 164" class="cls-7" d="M261.176,20.676V31.029A5.126,5.126,0,0,1,256,36.206V15.5A5.126,5.126,0,0,1,261.176,20.676Z" transform="translate(-167.65)"/>
  </g>
</svg>
