<svg xmlns="http://www.w3.org/2000/svg" width="24.075" height="35.798" viewBox="0 0 24.075 35.798">
  <defs>
    <style>
      .cls-1 {
        fill: #fcb129;
      }
    </style>
  </defs>
  <g id="big-light" transform="translate(-72.412)">
    <path id="Path_95" data-name="Path 95" class="cls-1" d="M84.449,0a12.038,12.038,0,0,0-6.272,22.312l.385,2.841a2.673,2.673,0,0,0,2.59,2.358h6.594a2.673,2.673,0,0,0,2.59-2.358l.385-2.841A12.038,12.038,0,0,0,84.449,0Zm5.124,21.11a.81.81,0,0,0-.4.6l-.438,3.23a1.065,1.065,0,0,1-.986.957H81.152a1.065,1.065,0,0,1-.986-.957l-.438-3.23a.809.809,0,0,0-.4-.6,10.418,10.418,0,1,1,10.248,0Z"/>
    <path id="Path_96" data-name="Path 96" class="cls-1" d="M168.024,351.19h-8.479a.81.81,0,1,0,0,1.619h8.479a.81.81,0,0,0,0-1.619Z" transform="translate(-79.335 -322.761)"/>
    <path id="Path_97" data-name="Path 97" class="cls-1" d="M178.652,382.526h-6.426a.81.81,0,0,0-.81.81,4.023,4.023,0,0,0,8.045,0A.809.809,0,0,0,178.652,382.526Zm-3.213,3.213a2.408,2.408,0,0,1-2.263-1.594H177.7A2.408,2.408,0,0,1,175.439,385.739Z" transform="translate(-90.989 -351.56)"/>
    <path id="Path_98" data-name="Path 98" class="cls-1" d="M167.991,145.377c0-.015,0-.03,0-.045s0-.023,0-.034,0-.029-.005-.043,0-.025-.007-.037-.005-.026-.008-.039-.008-.027-.012-.04-.007-.023-.011-.034-.011-.027-.016-.041l-.014-.032c-.006-.012-.012-.025-.019-.037l-.019-.034-.02-.031-.026-.037-.009-.013-.012-.014-.031-.036-.024-.025-.033-.031-.028-.024-.033-.025-.032-.022-.033-.021-.036-.02-.033-.016-.04-.018-.033-.012-.044-.014-.018-.006-.016,0-.043-.009-.038-.007-.037,0-.043,0h-.079l-.033,0-.044.005-.036.007-.04.009-.039.011-.035.011-.039.016-.034.015-.036.019-.035.02-.031.02-.037.026-.013.009-1.662,1.3-1.662-1.3a.81.81,0,0,0-1,0l-1.662,1.3-1.662-1.3-.013-.009-.037-.026-.031-.02-.034-.019-.037-.019-.032-.014-.04-.016-.034-.011-.04-.012-.039-.008-.037-.007-.043-.005-.034,0h-.079l-.043,0-.038,0-.038.006-.043.009-.016,0-.018.006-.044.014-.033.012-.04.018-.033.016-.036.02-.033.021-.032.022-.033.025-.028.024-.032.03-.024.025-.03.035-.012.014-.009.013-.025.036-.021.032-.019.033c-.007.012-.013.025-.019.038l-.014.032c-.006.014-.011.027-.017.041s-.007.022-.011.033-.008.027-.012.041-.006.025-.008.038-.005.025-.007.037,0,.029-.005.043,0,.023,0,.034,0,.03,0,.045,0,.023,0,.034,0,.029,0,.043,0,.025,0,.038,0,.025.006.038.006.029.009.043,0,.011,0,.016l3.116,11.653a.81.81,0,0,0,1.564-.418l-2.49-9.314.255.2a.81.81,0,0,0,1,0l1.662-1.3,1.662,1.3a.81.81,0,0,0,1,0l.255-.2-2.49,9.314a.81.81,0,1,0,1.564.418l3.116-11.653c0-.005,0-.011,0-.016s.006-.029.009-.043,0-.025.006-.038,0-.025,0-.038,0-.029,0-.043S167.991,145.388,167.991,145.377Z" transform="translate(-78.411 -132.866)"/>
  </g>
</svg>
