<svg xmlns="http://www.w3.org/2000/svg" width="175" height="175" viewBox="0 0 175 175">
  <defs>
    <style>
      .cls-1 {
        fill: #a6adc1;
      }
    </style>
  </defs>
  <g id="box" transform="translate(-0.001 0)">
    <path id="Path_50" data-name="Path 50" class="cls-1" d="M155.544,62,174,42.6a3.7,3.7,0,0,0,.967-3.046,3.6,3.6,0,0,0-1.738-2.642l-22.187-12.8a3.335,3.335,0,0,0-4.641,1.42,3.687,3.687,0,0,0,1.351,4.877l18.2,10.5L150.107,57.55,93.14,24.679,108.978,8.037l16.01,9.239a3.334,3.334,0,0,0,4.641-1.42,3.686,3.686,0,0,0-1.351-4.877L110.019.443a3.294,3.294,0,0,0-4.062.609L87.5,20.447,69.044,1.052A3.3,3.3,0,0,0,64.982.443L1.774,36.915A3.593,3.593,0,0,0,.035,39.557,3.7,3.7,0,0,0,1,42.6L19.458,62,1,81.388a3.7,3.7,0,0,0-.967,3.047,3.59,3.59,0,0,0,1.738,2.64L20.874,98.1v36.839a3.625,3.625,0,0,0,1.773,3.15l63.209,36.47a3.273,3.273,0,0,0,3.29,0l63.209-36.47a3.625,3.625,0,0,0,1.773-3.15V98.1l19.1-11.02a3.6,3.6,0,0,0,1.738-2.642A3.7,3.7,0,0,0,174,81.389ZM87.5,94.368,31.394,61.994,87.5,29.619l56.107,32.375ZM66.025,8.037,81.861,24.679,24.894,57.55,9.057,40.908ZM24.9,66.44l56.967,32.87L66.025,115.954,9.057,83.084Zm122.394,66.372L90.919,165.339V128.624a3.422,3.422,0,1,0-6.836,0v36.714L27.71,132.812v-30.77l37.272,21.506a3.29,3.29,0,0,0,1.644.443,3.336,3.336,0,0,0,2.418-1.052L87.5,103.545l18.457,19.395a3.331,3.331,0,0,0,2.418,1.052,3.29,3.29,0,0,0,1.644-.443l37.272-21.506Zm-38.313-16.858L93.139,99.309,150.106,66.44l15.84,16.642Zm0,0" transform="translate(0 0)"/>
    <path id="Path_51" data-name="Path 51" class="cls-1" d="M397.242,53.059a2.444,2.444,0,1,0-1.726-.716A2.463,2.463,0,0,0,397.242,53.059Zm0,0" transform="translate(-258.291 -36.414)"/>
    <path id="Path_52" data-name="Path 52" class="cls-1" d="M248.441,314.926a2.442,2.442,0,1,0,1.726.715A2.457,2.457,0,0,0,248.441,314.926Zm0,0" transform="translate(-160.941 -200.266)"/>
  </g>
</svg>
