<svg id="cocktail" xmlns="http://www.w3.org/2000/svg" width="39.759" height="52.27" viewBox="0 0 39.759 52.27">
  <defs>
    <style>
      .cls-1 {
        fill: #ffb32a;
      }
    </style>
  </defs>
  <g id="Group_92" data-name="Group 92" transform="translate(0)">
    <path id="Path_94" data-name="Path 94" class="cls-1" d="M100.688,7.092a1.711,1.711,0,0,0-1.367-2.74H71.45a5.117,5.117,0,1,0-3.188,5.53L79.9,25.339a4.825,4.825,0,0,1,.963,2.88V42.806a5.761,5.761,0,0,1-4.719,5.668c-.284.045-2.8.513-3.326,2.864a.766.766,0,0,0,.748.932H85.476a.766.766,0,1,0,0-1.533H74.838a3.348,3.348,0,0,1,1.854-.811,7.288,7.288,0,0,0,5.7-7.121V28.219a6.224,6.224,0,0,0-.037-.67H84.49a6.227,6.227,0,0,0-.037.67V42.806a7.294,7.294,0,0,0,5.734,7.128,3.46,3.46,0,0,1,1.824.8H89.082a.766.766,0,1,0,0,1.533h4.2a.766.766,0,0,0,.748-.932c-.387-1.742-1.921-2.566-3.527-2.9a5.754,5.754,0,0,1-4.517-5.628V28.219a4.831,4.831,0,0,1,.963-2.88ZM66.392,8.7a3.585,3.585,0,1,1,3.5-4.352H67.528a1.711,1.711,0,0,0-1.367,2.74l1.127,1.5A3.566,3.566,0,0,1,66.392,8.7ZM84.848,26.016H82a6.269,6.269,0,0,0-.583-1.176l0,0c-.333-.534-.731-1.006-1.108-1.506-.61-.81-10.1-13.417-10.4-13.814a27.489,27.489,0,0,1,3.359.265c.524.071,1.047.155,1.568.247s1.016.188,1.522.292a.766.766,0,1,0,.306-1.5A33.281,33.281,0,0,0,68.764,8L67.385,6.17a.178.178,0,0,1,.142-.285H99.321a.178.178,0,0,1,.142.285l-2.05,2.722a11.661,11.661,0,0,1-2.563,1.254,17.272,17.272,0,0,1-6.47.8A46.852,46.852,0,0,1,80.159,9.6a.766.766,0,1,0-.345,1.493A49.326,49.326,0,0,0,88.1,12.465a19.115,19.115,0,0,0,7.253-.87l.038-.013L85.724,24.417a6.4,6.4,0,0,0-.876,1.6Z" transform="translate(-61.274)"/>
  </g>
</svg>
