<svg xmlns="http://www.w3.org/2000/svg" width="70.091" height="70.02" viewBox="0 0 70.091 70.02">
  <defs>
    <style>
      .cls-1 {
        fill: #ffb32a;
      }
    </style>
  </defs>
  <g id="credit-card" transform="translate(0 -3.245)">
    <g id="Group_130" data-name="Group 130" transform="translate(0 3.245)">
      <g id="Group_129" data-name="Group 129" transform="translate(0 0)">
        <path id="Path_113" data-name="Path 113" class="cls-1" d="M69.6,25.387,61.771,5.027A7.469,7.469,0,0,0,52.116.745l-.167.067L12.816,17.033a7.434,7.434,0,0,0-4.13,9.512l1.076,2.872H7.294A7.3,7.3,0,0,0,0,36.711V62.969a7.3,7.3,0,0,0,7.294,7.294h49.6a7.3,7.3,0,0,0,7.294-7.294V36.711a7.17,7.17,0,0,0-.105-1.181l1.355-.549A7.5,7.5,0,0,0,69.6,25.387ZM7.294,31.751h49.6a4.953,4.953,0,0,1,4.931,4.668H2.363A4.953,4.953,0,0,1,7.294,31.751Zm11.73-7.03,7.8-3.9,1.6,4.011-7.8,3.9ZM61.852,62.969a4.966,4.966,0,0,1-4.96,4.96H7.294a4.966,4.966,0,0,1-4.96-4.96V48.09H61.852Zm0-17.213H2.334v-7H61.852ZM64.56,32.825l-1.22.494a7.3,7.3,0,0,0-6.449-3.9H24.475l5.958-2.979a1.167,1.167,0,0,0,.563-1.477L28.52,18.775A1.167,1.167,0,0,0,27,18.125q-.045.018-.089.04l-9.9,4.95a1.167,1.167,0,0,0-.561,1.477l1.93,4.824H12.254l-1.382-3.685A5.109,5.109,0,0,1,13.71,19.2L52.841,2.975a5.128,5.128,0,0,1,6.7,2.773q.025.061.049.123l7.831,20.36A5.152,5.152,0,0,1,64.56,32.825Z" transform="translate(0 -0.243)"/>
        <path id="Path_114" data-name="Path 114" class="cls-1" d="M267.365,365.287a7,7,0,0,0,7.035,0,7,7,0,1,0,0-12.109,7,7,0,1,0-7.035,12.109Zm8.986-10.438a4.668,4.668,0,1,1,0,8.767A6.974,6.974,0,0,0,276.351,354.849Zm-1.951,1.328a4.583,4.583,0,0,1,0,6.111A4.583,4.583,0,0,1,274.4,356.177Zm-3.5-1.613a4.62,4.62,0,0,1,1.55.285,6.974,6.974,0,0,0,0,8.767,4.621,4.621,0,0,1-1.55.285,4.668,4.668,0,1,1,0-9.336Z" transform="translate(-225.385 -300.882)"/>
        <rect id="Rectangle_34" data-name="Rectangle 34" class="cls-1" width="2.334" height="12.184" transform="translate(50.175 26.217) rotate(-113.966)"/>
        <rect id="Rectangle_35" data-name="Rectangle 35" class="cls-1" width="17.711" height="2.333" transform="matrix(0.908, -0.419, 0.419, 0.908, 41.795, 21.617)"/>
      </g>
    </g>
  </g>
</svg>
