<svg xmlns="http://www.w3.org/2000/svg" width="46" height="31.891" viewBox="0 0 46 31.891">
  <defs>
    <style>
      .cls-1 {
        fill: #ffb32a;
      }
    </style>
  </defs>
  <g id="delivery" transform="translate(0 -78.521)">
    <g id="Group_110" data-name="Group 110" transform="translate(28.943 98.815)">
      <g id="Group_109" data-name="Group 109" transform="translate(0 0)">
        <path id="Path_103" data-name="Path 103" class="cls-1" d="M327.949,304.4a5.8,5.8,0,1,0,5.8,5.8A5.8,5.8,0,0,0,327.949,304.4Zm0,8.7a2.9,2.9,0,1,1,2.9-2.9A2.9,2.9,0,0,1,327.949,313.1Z" transform="translate(-322.151 -304.403)"/>
      </g>
    </g>
    <g id="Group_112" data-name="Group 112" transform="translate(9.132 98.815)">
      <g id="Group_111" data-name="Group 111" transform="translate(0 0)">
        <path id="Path_104" data-name="Path 104" class="cls-1" d="M107.445,304.4a5.8,5.8,0,1,0,5.8,5.8A5.8,5.8,0,0,0,107.445,304.4Zm0,8.7a2.9,2.9,0,1,1,2.9-2.9A2.9,2.9,0,0,1,107.445,313.1Z" transform="translate(-101.647 -304.403)"/>
      </g>
    </g>
    <g id="Group_114" data-name="Group 114" transform="translate(29.716 81.42)">
      <g id="Group_113" data-name="Group 113" transform="translate(0 0)">
        <path id="Path_105" data-name="Path 105" class="cls-1" d="M339.686,111.588a1.45,1.45,0,0,0-1.3-.8h-7.634v2.9H337.5l3.947,7.851,2.591-1.3Z" transform="translate(-330.756 -110.79)"/>
      </g>
    </g>
    <g id="Group_116" data-name="Group 116" transform="translate(19.424 103.212)">
      <g id="Group_115" data-name="Group 115" transform="translate(0 0)">
        <rect id="Rectangle_27" data-name="Rectangle 27" class="cls-1" width="10.968" height="2.899"/>
      </g>
    </g>
    <g id="Group_118" data-name="Group 118" transform="translate(4.107 103.212)">
      <g id="Group_117" data-name="Group 117" transform="translate(0 0)">
        <path id="Path_106" data-name="Path 106" class="cls-1" d="M52.19,353.345H47.165a1.45,1.45,0,1,0,0,2.9H52.19a1.45,1.45,0,1,0,0-2.9Z" transform="translate(-45.715 -353.345)"/>
      </g>
    </g>
    <g id="Group_120" data-name="Group 120" transform="translate(4.107 78.521)">
      <g id="Group_119" data-name="Group 119" transform="translate(0 0)">
        <path id="Path_107" data-name="Path 107" class="cls-1" d="M87.3,94.35l-2.851-3.672a1.448,1.448,0,0,0-1.145-.561H72.774V79.971a1.449,1.449,0,0,0-1.45-1.45H47.165a1.45,1.45,0,0,0,0,2.9h22.71V91.567a1.449,1.449,0,0,0,1.45,1.45H82.6l2.111,2.719v7.476H80.7a1.45,1.45,0,0,0,0,2.9h5.46a1.45,1.45,0,0,0,1.45-1.45V95.239A1.452,1.452,0,0,0,87.3,94.35Z" transform="translate(-45.715 -78.521)"/>
      </g>
    </g>
    <g id="Group_122" data-name="Group 122" transform="translate(2.368 95.868)">
      <g id="Group_121" data-name="Group 121" transform="translate(0 0)">
        <path id="Path_108" data-name="Path 108" class="cls-1" d="M34.471,271.6H27.8a1.45,1.45,0,1,0,0,2.9h6.668a1.45,1.45,0,0,0,0-2.9Z" transform="translate(-26.353 -271.597)"/>
      </g>
    </g>
    <g id="Group_124" data-name="Group 124" transform="translate(0 90.166)">
      <g id="Group_123" data-name="Group 123" transform="translate(0 0)">
        <path id="Path_109" data-name="Path 109" class="cls-1" d="M13.819,208.134H1.45a1.45,1.45,0,0,0,0,2.9h12.37a1.45,1.45,0,0,0,0-2.9Z" transform="translate(0 -208.134)"/>
      </g>
    </g>
    <g id="Group_126" data-name="Group 126" transform="translate(2.368 84.464)">
      <g id="Group_125" data-name="Group 125" transform="translate(0 0)">
        <path id="Path_110" data-name="Path 110" class="cls-1" d="M40.172,144.672H27.8a1.45,1.45,0,1,0,0,2.9h12.37a1.45,1.45,0,1,0,0-2.9Z" transform="translate(-26.353 -144.672)"/>
      </g>
    </g>
  </g>
</svg>
