<svg xmlns="http://www.w3.org/2000/svg" width="297.65" height="278.833" viewBox="0 0 297.65 278.833">
  <g id="Group_150" data-name="Group 150" transform="translate(-2225 -2723)">
    <path id="Path_124" data-name="Path 124" d="M608,278.833H437.646C402.5,278.833,374,251.556,374,217.907V60.927C374,27.278,402.5,0,437.646,0H608c35.151,0,63.646,27.278,63.646,60.927v156.98c0,33.649-28.5,60.927-63.646,60.927" transform="translate(1851 2723)" fill="#283845"/>
    <g id="Group_148" data-name="Group 148" transform="translate(35 -415)">
      <g id="Group_147" data-name="Group 147" transform="translate(2234.52 3168.785)">
        <path id="Path_44" data-name="Path 44" d="M520.71,206.161a6.747,6.747,0,0,0-2.423-1.715,7.65,7.65,0,0,0-3.022-.567H481.812a4.2,4.2,0,0,0-2.517.814l-.058.045a5.294,5.294,0,0,0-1.48,1.948c-.006.012-.012.026-.018.04a10.707,10.707,0,0,0-.711,2.673,26.454,26.454,0,0,0-.2,3.637,15.832,15.832,0,0,0,.929,6.3l.016.034a4.384,4.384,0,0,0,4.041,2.778h16.655v18.6a23.8,23.8,0,0,1-4.518,1.483,29.856,29.856,0,0,1-6.2.666,34.245,34.245,0,0,1-11.835-1.957,24.663,24.663,0,0,1-9-5.709,27.034,27.034,0,0,1-5.888-9.53,33.153,33.153,0,0,1-1.379-5.042,2.08,2.08,0,0,0-2.424-1.581,1.977,1.977,0,0,0-1.678,2.284,36.842,36.842,0,0,0,1.543,5.63,30.934,30.934,0,0,0,6.77,10.914,28.857,28.857,0,0,0,10.537,6.693,38.61,38.61,0,0,0,13.356,2.228,34.267,34.267,0,0,0,7.142-.767,27.917,27.917,0,0,0,6.657-2.376,1.952,1.952,0,0,0,1.091-1.728V220.179a2.028,2.028,0,0,0-2.084-1.965H481.87a1.688,1.688,0,0,1-.3-.455,12.471,12.471,0,0,1-.579-4.723,22.809,22.809,0,0,1,.163-3.112,6.8,6.8,0,0,1,.431-1.691,1.636,1.636,0,0,1,.266-.423h33.408a3.349,3.349,0,0,1,1.3.214l.03.013a2.605,2.605,0,0,1,.956.687,3.217,3.217,0,0,1,.683,1.182l.014.039a6.163,6.163,0,0,1,.291,1.983v37.242a6.41,6.41,0,0,1-.607,2.947l-.017.033a3.873,3.873,0,0,1-2.154,1.544l-.036.014c-1.439.56-3.336,1.164-5.948,1.9-2.609.706-5.044,1.257-7.441,1.682l-.024,0a75.51,75.51,0,0,1-7.744,1.052l-.022,0c-2.586.239-5.233.359-7.872.359a63.727,63.727,0,0,1-20.561-3.107,41.7,41.7,0,0,1-15.133-8.858,38.425,38.425,0,0,1-9.472-14.164,57.477,57.477,0,0,1,.232-39.146,41.269,41.269,0,0,1,9.928-14.847,43.541,43.541,0,0,1,15.542-9.326,60.889,60.889,0,0,1,20.482-3.273,71.569,71.569,0,0,1,11.382.809,67.03,67.03,0,0,1,8.944,1.979,35.006,35.006,0,0,1,6.141,2.4,14.47,14.47,0,0,1,3.133,2.042c.017.017.035.035.054.052a3.788,3.788,0,0,1,.927,1.89l.011.046a21.028,21.028,0,0,1,.411,4.976,27.086,27.086,0,0,1-.167,3.358,8.424,8.424,0,0,1-.432,1.962l-.01.024a3.215,3.215,0,0,1-.131.3,9.353,9.353,0,0,1-2.044-.991,51.8,51.8,0,0,0-6.165-2.959,68.005,68.005,0,0,0-9.046-2.929,50.738,50.738,0,0,0-12.38-1.373,36.967,36.967,0,0,0-13.813,2.5,30.581,30.581,0,0,0-10.686,7.144,31.785,31.785,0,0,0-6.767,11.008,35.9,35.9,0,0,0-1.4,4.779,1.97,1.97,0,0,0,1.621,2.32,2.083,2.083,0,0,0,2.461-1.528,32.072,32.072,0,0,1,1.249-4.277,27.5,27.5,0,0,1,5.927-9.671,26.418,26.418,0,0,1,9.228-6.161A32.588,32.588,0,0,1,488.32,181.5a46.432,46.432,0,0,1,11.3,1.237,63.391,63.391,0,0,1,8.464,2.738,47.656,47.656,0,0,1,5.635,2.7,9.063,9.063,0,0,0,4.319,1.6,4.142,4.142,0,0,0,2.409-.749,4.42,4.42,0,0,0,1.56-2.163,12.048,12.048,0,0,0,.662-2.854,30.339,30.339,0,0,0,.2-3.833,24.881,24.881,0,0,0-.525-5.889,7.46,7.46,0,0,0-2.018-3.775,17.711,17.711,0,0,0-4.116-2.764,39.26,39.26,0,0,0-6.905-2.716,71.134,71.134,0,0,0-9.524-2.114,75.99,75.99,0,0,0-12.085-.865,65.265,65.265,0,0,0-21.956,3.525,47.729,47.729,0,0,0-17.025,10.232,45.119,45.119,0,0,0-10.871,16.228,61.157,61.157,0,0,0-.243,41.9,42.3,42.3,0,0,0,10.443,15.589,45.842,45.842,0,0,0,16.649,9.763,68.046,68.046,0,0,0,21.985,3.344c2.769,0,5.551-.126,8.267-.377a79.569,79.569,0,0,0,8.177-1.111c2.524-.448,5.078-1.024,7.829-1.771,2.761-.774,4.779-1.42,6.35-2.03a7.488,7.488,0,0,0,4.405-3.554,10.06,10.06,0,0,0,1.006-4.624V211.927a9.857,9.857,0,0,0-.487-3.17,7.122,7.122,0,0,0-1.51-2.6" transform="translate(-428.764 -45.43)" fill="#f2d492"/>
        <path id="Path_43" data-name="Path 43" d="M457.762,212.477a1.968,1.968,0,1,0,2.087,1.965,2.028,2.028,0,0,0-2.087-1.965Z" transform="translate(-429.728 -47.673)" fill="#f2d492"/>
        <path id="Path_46" data-name="Path 46" d="M604.753,187.3a20.583,20.583,0,0,0-8.019-7.235,26.976,26.976,0,0,0-12.2-2.514,25.019,25.019,0,0,0-12.4,2.844,23.126,23.126,0,0,0-8.13,7.574,30.643,30.643,0,0,0-4.276,10.81c-.242,1.213-.45,2.461-.618,3.711a1.931,1.931,0,1,0,3.828.518c.158-1.169.353-2.336.579-3.468a26.807,26.807,0,0,1,3.717-9.447,19.279,19.279,0,0,1,6.793-6.319,21.234,21.234,0,0,1,10.506-2.35,23.212,23.212,0,0,1,10.453,2.094,16.753,16.753,0,0,1,6.524,5.885,26.558,26.558,0,0,1,3.576,9.485,69.291,69.291,0,0,1,1.1,12.825,62.594,62.594,0,0,1-1.127,12.129,27.553,27.553,0,0,1-3.724,9.6,18.752,18.752,0,0,1-6.784,6.332,21.28,21.28,0,0,1-10.507,2.325A24.119,24.119,0,0,1,573.5,240.07a15.63,15.63,0,0,1-6.438-5.8,27.674,27.674,0,0,1-3.565-9.626c-.279-1.487-.507-3.066-.681-4.693a1.932,1.932,0,1,0-3.841.412c.183,1.729.428,3.41.726,5a31.536,31.536,0,0,0,4.093,10.975,19.661,19.661,0,0,0,8,7.213,27.86,27.86,0,0,0,12.253,2.43,25.018,25.018,0,0,0,12.387-2.814,22.553,22.553,0,0,0,8.151-7.617,31.4,31.4,0,0,0,4.266-10.943,66.445,66.445,0,0,0,1.2-12.884,73.119,73.119,0,0,0-1.172-13.549,30.393,30.393,0,0,0-4.126-10.864" transform="translate(-434.323 -46.12)" fill="#f2d492"/>
        <path id="Path_45" data-name="Path 45" d="M625.911,188.743A38.989,38.989,0,0,0,617.4,173.48a34.171,34.171,0,0,0-14.107-9.064,58.324,58.324,0,0,0-19.037-2.874,53.1,53.1,0,0,0-19.923,3.49,38.6,38.6,0,0,0-14.569,10.094,42.961,42.961,0,0,0-8.858,15.887,68.458,68.458,0,0,0-2.924,20.671,76.265,76.265,0,0,0,2.745,21.61,38.76,38.76,0,0,0,8.4,15.4,34.38,34.38,0,0,0,14.1,9.085,58.31,58.31,0,0,0,19.313,2.926,53.4,53.4,0,0,0,19.851-3.441,38.4,38.4,0,0,0,14.569-10.118,42.952,42.952,0,0,0,8.859-16.039,70.559,70.559,0,0,0,2.923-21.053,72.73,72.73,0,0,0-2.824-21.315m-3.784,41.2a39.131,39.131,0,0,1-8.053,14.617,34.559,34.559,0,0,1-13.126,9.106,49.592,49.592,0,0,1-18.416,3.165,54.514,54.514,0,0,1-18.035-2.708,30.158,30.158,0,0,1-12.539-8.06,34.971,34.971,0,0,1-7.535-13.884,72.452,72.452,0,0,1-2.583-20.5,64.591,64.591,0,0,1,2.742-19.5,39.115,39.115,0,0,1,8.051-14.473,34.77,34.77,0,0,1,13.136-9.089,49.276,49.276,0,0,1,18.482-3.211,54.493,54.493,0,0,1,17.772,2.661,30.365,30.365,0,0,1,12.544,8.043,35.173,35.173,0,0,1,7.654,13.772,68.93,68.93,0,0,1,2.65,20.166,66.711,66.711,0,0,1-2.744,19.89" transform="translate(-433.389 -45.407)" fill="#f2d492"/>
        <path id="Path_48" data-name="Path 48" d="M560.438,214.874a1.937,1.937,0,0,0,0-3.874h0a1.937,1.937,0,0,0,0,3.874" transform="translate(-434.303 -47.607)" fill="#f2d492"/>
        <path id="Path_47" data-name="Path 47" d="M533,44.053a4.058,4.058,0,1,1,4.058,4.053A4.055,4.055,0,0,1,533,44.053" transform="translate(-433.168 -40)" fill="#ffb32a"/>
        <path id="Path_42" data-name="Path 42" d="M432.579,145.47H632.24a4.056,4.056,0,0,0,4.058-4.054c0-48.772-36.734-90.629-84.961-99.593a4.054,4.054,0,1,0-1.486,7.97c43.276,8.043,76.239,45.289,78.235,87.57H610.622C608.466,96.985,573.768,64.4,532.409,64.4S456.351,96.987,454.2,137.367H436.732c2-42.281,34.958-79.531,78.233-87.575a4.053,4.053,0,1,0-1.484-7.97c-48.094,8.938-84.961,50.687-84.961,99.593a4.056,4.056,0,0,0,4.059,4.054M549.432,118.7a28.1,28.1,0,0,0-12.965-5.369v-40.7a70.292,70.292,0,0,1,42.005,17.065Zm-21.082-5.368a28.1,28.1,0,0,0-12.924,5.338L486.38,89.659a70.327,70.327,0,0,1,41.971-17.032Zm4.058,7.817a20.294,20.294,0,0,1,19.885,16.219H512.523a20.286,20.286,0,0,1,19.886-16.219m70.079,16.214H560.526a28.054,28.054,0,0,0-5.357-12.926l29.144-29.113a67.453,67.453,0,0,1,18.175,42.04M480.536,95.286l29.142,29.108a28.051,28.051,0,0,0-5.388,12.974H462.33a67.491,67.491,0,0,1,18.206-42.082" transform="translate(-428.52 -40.078)" fill="#ffb32a"/>
      </g>
    </g>
  </g>
</svg>
