<svg xmlns="http://www.w3.org/2000/svg" width="430.849" height="873.438" viewBox="0 0 430.849 873.438">
  <defs>
    <style>
      .cls-1 {
        fill: #283845;
      }

      .cls-2, .cls-4 {
        fill: #202c39;
      }

      .cls-3 {
        fill: #ffb32a;
      }

      .cls-4, .cls-7 {
        font-size: 19px;
        font-weight: 300;
      }

      .cls-4 {
        font-family: Avenir-Light, Avenir;
      }

      .cls-5 {
        fill: #f2d492;
      }

      .cls-6 {
        fill: #ffd7be;
        font-size: 25px;
        font-family: Avenir-Heavy, Avenir;
        font-weight: 800;
      }

      .cls-7 {
        fill: #a6adc1;
        font-family: AdobeClean-Light, Adobe Clean;
        opacity: 0.998;
      }

      .cls-8 {
        fill: #171f29;
      }

      .cls-9 {
        fill: #fcb129;
      }

      .cls-10 {
        fill: #010003;
      }

      .cls-11 {
        fill: #484450;
      }
    </style>
  </defs>
  <g id="Group_162" data-name="Group 162" transform="translate(-1143 -2775)">
    <path id="Path_150" data-name="Path 150" class="cls-1" d="M57.976,0H343.024C375.043,0,401,26.61,401,59.434v745.9c0,32.825-25.957,59.434-57.976,59.434H57.976C25.957,864.769,0,838.159,0,805.334V59.434C0,26.61,25.957,0,57.976,0Z" transform="translate(1157 2775)"/>
    <rect id="Rectangle_46" data-name="Rectangle 46" class="cls-2" width="313" height="53" rx="26.5" transform="translate(1202 3157)"/>
    <path id="Rectangle_47" data-name="Rectangle 47" class="cls-3" d="M0,0H38A26,26,0,0,1,64,26v0A26,26,0,0,1,38,52H0a0,0,0,0,1,0,0V0A0,0,0,0,1,0,0Z" transform="translate(1451 3158)"/>
    <text id="Enter" class="cls-4" transform="translate(1481 3190)"><tspan x="-22.524" y="0">Enter</tspan></text>
    <g id="Group_152" data-name="Group 152" transform="translate(400 1560.785)">
      <path id="Path_44" data-name="Path 44" class="cls-5" d="M493.7,192.42a4.644,4.644,0,0,0-1.668-1.181,5.265,5.265,0,0,0-2.081-.39h-23.03a2.888,2.888,0,0,0-1.733.56l-.04.031a3.644,3.644,0,0,0-1.019,1.341c0,.009-.009.018-.012.028a7.368,7.368,0,0,0-.489,1.84,18.217,18.217,0,0,0-.139,2.5,10.9,10.9,0,0,0,.639,4.334l.011.024a3.018,3.018,0,0,0,2.782,1.912h11.466v12.806a16.383,16.383,0,0,1-3.11,1.021,20.553,20.553,0,0,1-4.271.458,23.576,23.576,0,0,1-8.148-1.347,16.978,16.978,0,0,1-6.2-3.93,18.612,18.612,0,0,1-4.053-6.561,22.827,22.827,0,0,1-.949-3.471,1.432,1.432,0,0,0-1.669-1.089,1.361,1.361,0,0,0-1.155,1.572,25.362,25.362,0,0,0,1.062,3.876,21.3,21.3,0,0,0,4.661,7.514,19.866,19.866,0,0,0,7.254,4.608,26.581,26.581,0,0,0,9.195,1.534,23.589,23.589,0,0,0,4.917-.528,19.219,19.219,0,0,0,4.583-1.636,1.344,1.344,0,0,0,.751-1.189v-14.99a1.4,1.4,0,0,0-1.435-1.353h-12.86a1.162,1.162,0,0,1-.2-.313,8.586,8.586,0,0,1-.4-3.252,15.7,15.7,0,0,1,.112-2.142,4.683,4.683,0,0,1,.3-1.164,1.128,1.128,0,0,1,.183-.291h23a2.306,2.306,0,0,1,.9.147l.02.009a1.793,1.793,0,0,1,.658.473,2.215,2.215,0,0,1,.47.814l.009.027a4.242,4.242,0,0,1,.2,1.365v25.639a4.412,4.412,0,0,1-.418,2.029l-.012.023a2.666,2.666,0,0,1-1.483,1.063l-.025.01c-.991.385-2.3.8-4.095,1.306-1.8.486-3.473.866-5.122,1.158l-.016,0a51.985,51.985,0,0,1-5.332.724l-.015,0c-1.78.164-3.6.247-5.42.247a43.872,43.872,0,0,1-14.155-2.139,28.707,28.707,0,0,1-10.418-6.1,26.453,26.453,0,0,1-6.521-9.751,39.569,39.569,0,0,1,.16-26.95,28.412,28.412,0,0,1,6.835-10.221,29.975,29.975,0,0,1,10.7-6.42,41.919,41.919,0,0,1,14.1-2.253,49.268,49.268,0,0,1,7.836.557,46.14,46.14,0,0,1,6.157,1.362,24.1,24.1,0,0,1,4.228,1.652,9.961,9.961,0,0,1,2.157,1.406c.012.012.024.024.037.036a2.608,2.608,0,0,1,.638,1.3l.008.032a14.479,14.479,0,0,1,.283,3.426,18.653,18.653,0,0,1-.115,2.312,5.8,5.8,0,0,1-.3,1.35l-.007.016a2.222,2.222,0,0,1-.09.209,6.44,6.44,0,0,1-1.407-.682,35.664,35.664,0,0,0-4.244-2.037,46.824,46.824,0,0,0-6.228-2.016,34.93,34.93,0,0,0-8.523-.945,25.449,25.449,0,0,0-9.509,1.72,21.053,21.053,0,0,0-7.356,4.919,21.883,21.883,0,0,0-4.659,7.578,24.719,24.719,0,0,0-.96,3.29,1.356,1.356,0,0,0,1.116,1.6,1.434,1.434,0,0,0,1.695-1.052,22.074,22.074,0,0,1,.86-2.944,18.935,18.935,0,0,1,4.08-6.658,18.187,18.187,0,0,1,6.353-4.242,22.434,22.434,0,0,1,8.381-1.5,31.965,31.965,0,0,1,7.777.852,43.637,43.637,0,0,1,5.827,1.885,32.813,32.813,0,0,1,3.879,1.857,6.24,6.24,0,0,0,2.973,1.1,2.851,2.851,0,0,0,1.658-.516,3.043,3.043,0,0,0,1.074-1.489,8.294,8.294,0,0,0,.456-1.965,20.888,20.888,0,0,0,.136-2.638,17.129,17.129,0,0,0-.361-4.054,5.135,5.135,0,0,0-1.389-2.6,12.19,12.19,0,0,0-2.833-1.9,27.027,27.027,0,0,0-4.754-1.87,48.967,48.967,0,0,0-6.556-1.455,52.317,52.317,0,0,0-8.32-.6,44.931,44.931,0,0,0-15.115,2.427,32.857,32.857,0,0,0-11.721,7.044,31.062,31.062,0,0,0-7.484,11.172,42.1,42.1,0,0,0-.167,28.843,29.12,29.12,0,0,0,7.189,10.732A31.56,31.56,0,0,0,455.132,229a46.845,46.845,0,0,0,15.135,2.3c1.906,0,3.822-.087,5.691-.26a54.778,54.778,0,0,0,5.63-.765c1.737-.309,3.5-.705,5.389-1.219,1.9-.533,3.29-.978,4.372-1.4a5.155,5.155,0,0,0,3.033-2.446,6.925,6.925,0,0,0,.693-3.183V196.39a6.783,6.783,0,0,0-.335-2.183,4.9,4.9,0,0,0-1.039-1.787" transform="translate(456.119 1229.234)"/>
      <path id="Path_43" data-name="Path 43" class="cls-5" d="M457.113,212.477a1.355,1.355,0,1,0,1.437,1.353,1.4,1.4,0,0,0-1.437-1.353Z" transform="translate(448.707 1211.981)"/>
      <path id="Path_46" data-name="Path 46" class="cls-5" d="M590.486,184.266a14.17,14.17,0,0,0-5.52-4.981,18.571,18.571,0,0,0-8.4-1.731,17.224,17.224,0,0,0-8.536,1.958,15.921,15.921,0,0,0-5.6,5.215,21.1,21.1,0,0,0-2.944,7.442c-.166.835-.31,1.695-.426,2.555a1.33,1.33,0,1,0,2.635.357c.109-.8.243-1.608.4-2.387a18.453,18.453,0,0,1,2.559-6.5,13.271,13.271,0,0,1,4.676-4.35,14.618,14.618,0,0,1,7.233-1.618,15.98,15.98,0,0,1,7.2,1.441,11.533,11.533,0,0,1,4.492,4.051,18.283,18.283,0,0,1,2.462,6.53,47.7,47.7,0,0,1,.76,8.829,43.1,43.1,0,0,1-.776,8.35,18.97,18.97,0,0,1-2.563,6.609,12.911,12.911,0,0,1-4.67,4.359,14.65,14.65,0,0,1-7.233,1.6,16.6,16.6,0,0,1-7.262-1.4,10.76,10.76,0,0,1-4.432-3.995,19.054,19.054,0,0,1-2.454-6.627c-.192-1.024-.349-2.111-.469-3.231a1.33,1.33,0,1,0-2.644.284c.126,1.19.295,2.348.5,3.44a21.711,21.711,0,0,0,2.817,7.556,13.536,13.536,0,0,0,5.509,4.966,19.18,19.18,0,0,0,8.436,1.673,17.224,17.224,0,0,0,8.528-1.937,15.526,15.526,0,0,0,5.611-5.244,21.611,21.611,0,0,0,2.937-7.534,45.739,45.739,0,0,0,.826-8.87,50.33,50.33,0,0,0-.807-9.328,20.923,20.923,0,0,0-2.84-7.479" transform="translate(413.365 1223.931)"/>
      <path id="Path_45" data-name="Path 45" class="cls-5" d="M598.514,180.268a26.843,26.843,0,0,0-5.862-10.507,23.525,23.525,0,0,0-9.712-6.24,40.152,40.152,0,0,0-13.106-1.979,36.557,36.557,0,0,0-13.716,2.4,26.572,26.572,0,0,0-10.03,6.949,29.575,29.575,0,0,0-6.1,10.938,47.129,47.129,0,0,0-2.013,14.231,52.5,52.5,0,0,0,1.89,14.877,26.683,26.683,0,0,0,5.783,10.6,23.668,23.668,0,0,0,9.705,6.255,40.143,40.143,0,0,0,13.3,2.014,36.761,36.761,0,0,0,13.666-2.369,26.434,26.434,0,0,0,10.03-6.966,29.571,29.571,0,0,0,6.1-11.042,48.577,48.577,0,0,0,2.012-14.494,50.072,50.072,0,0,0-1.944-14.674m-2.6,28.367a26.939,26.939,0,0,1-5.544,10.063,23.791,23.791,0,0,1-9.036,6.269,34.14,34.14,0,0,1-12.678,2.179,37.53,37.53,0,0,1-12.416-1.864,20.762,20.762,0,0,1-8.633-5.549,24.076,24.076,0,0,1-5.187-9.558,49.878,49.878,0,0,1-1.778-14.113,44.469,44.469,0,0,1,1.888-13.422,26.931,26.931,0,0,1,5.543-9.964,23.938,23.938,0,0,1,9.044-6.257,33.924,33.924,0,0,1,12.723-2.21,37.516,37.516,0,0,1,12.235,1.832,20.9,20.9,0,0,1,8.636,5.537,24.215,24.215,0,0,1,5.269,9.481,47.455,47.455,0,0,1,1.824,13.883,45.927,45.927,0,0,1-1.889,13.693" transform="translate(420.546 1229.41)"/>
      <path id="Path_48" data-name="Path 48" class="cls-5" d="M559.836,213.667a1.333,1.333,0,0,0,0-2.667h0a1.333,1.333,0,0,0,0,2.667" transform="translate(413.521 1212.486)"/>
      <path id="Path_47" data-name="Path 47" class="cls-3" d="M533,42.79a2.794,2.794,0,1,1,2.794,2.79A2.792,2.792,0,0,1,533,42.79" transform="translate(422.249 1271)"/>
      <path id="Path_42" data-name="Path 42" class="cls-3" d="M431.314,113.156H568.77a2.792,2.792,0,0,0,2.794-2.791c0-33.577-25.289-62.393-58.491-68.564a2.791,2.791,0,1,0-1.023,5.487c29.793,5.537,52.486,31.179,53.861,60.287H553.887c-1.485-27.8-25.372-50.231-53.846-50.231S447.68,79.779,446.2,107.578H434.173c1.374-29.108,24.067-54.753,53.859-60.29a2.791,2.791,0,1,0-1.022-5.487c-33.11,6.153-58.491,34.9-58.491,68.564a2.793,2.793,0,0,0,2.794,2.791m80.447-18.43a19.343,19.343,0,0,0-8.926-3.7V63.008a48.392,48.392,0,0,1,28.918,11.749Zm-14.513-3.7a19.345,19.345,0,0,0-8.9,3.675l-20-19.973a48.416,48.416,0,0,1,28.895-11.726Zm2.794,5.382a13.971,13.971,0,0,1,13.69,11.166h-27.38a13.966,13.966,0,0,1,13.69-11.166m48.246,11.162H519.4a19.313,19.313,0,0,0-3.688-8.9l20.064-20.043a46.438,46.438,0,0,1,12.512,28.942M464.33,78.607l20.063,20.039a19.313,19.313,0,0,0-3.709,8.932H451.8A46.464,46.464,0,0,1,464.33,78.607" transform="translate(458 1270.4)"/>
    </g>
    <text id="Thirsty_Look_up_bars_near_you_" data-name="Thirsty?
Look up bars near you!" class="cls-6" transform="translate(1358 3105)"><tspan x="-45.85" y="0">Thirsty?</tspan><tspan x="-134.212" y="34">Look up bars near you!</tspan></text>
    <text id="Zip_code_or_city" data-name="Zip code or city" class="cls-7" transform="translate(1286 3191)"><tspan x="-57.085" y="0">Zip code or city</tspan></text>
    <g id="Group_153" data-name="Group 153" transform="translate(1151 2720)">
      <rect id="Rectangle_20" data-name="Rectangle 20" class="cls-8" width="405" height="110" rx="28" transform="translate(6 804)"/>
      <g id="user" transform="translate(335 837)">
        <g id="Group_71" data-name="Group 71" transform="translate(0)">
          <path id="Path_81" data-name="Path 81" class="cls-3" d="M30.556,23.142a17.831,17.831,0,0,0-6.8-4.266,10.348,10.348,0,1,0-11.71,0A17.927,17.927,0,0,0,0,35.8H2.8a15.1,15.1,0,0,1,30.2,0h2.8A17.782,17.782,0,0,0,30.556,23.142ZM17.9,17.9a7.551,7.551,0,1,1,7.551-7.551A7.56,7.56,0,0,1,17.9,17.9Z" transform="translate(0)"/>
        </g>
      </g>
      <g id="shopping-cart" transform="translate(34.001 826.266)">
        <g id="Group_13" data-name="Group 13" transform="translate(-0.001 10.735)">
          <g id="Group_12" data-name="Group 12" transform="translate(0 0)">
            <path id="Path_34" data-name="Path 34" class="cls-3" d="M36.464,15.739a2.778,2.778,0,0,0-2.152-1.01H12.781a.8.8,0,0,0,0,1.6h21.53a1.171,1.171,0,0,1,.92.429,1.224,1.224,0,0,1,.254,1.013L32.292,33.733a1.206,1.206,0,0,1-1.176.969H13.358L6.026,12.628a2.84,2.84,0,0,0-2.7-1.893h0c-1.042.036-2.1.036-2.358.018A.8.8,0,0,0,.233,12.1c.247.247.331.331,3.121.234a1.229,1.229,0,0,1,1.159.811l7.51,22.609a.8.8,0,0,0,.758.547H31.116a2.8,2.8,0,0,0,2.741-2.24l3.2-15.982A2.819,2.819,0,0,0,36.464,15.739Z" transform="translate(0.001 -10.735)"/>
          </g>
        </g>
        <g id="Group_15" data-name="Group 15" transform="translate(11.982 34.701)">
          <g id="Group_14" data-name="Group 14">
            <path id="Path_35" data-name="Path 35" class="cls-3" d="M184.116,347.418h-14.54a1.218,1.218,0,0,1-1.12-.814l-1.558-4.634a.8.8,0,0,0-1.514.509l1.561,4.643a2.8,2.8,0,0,0,2.632,1.893h14.54a.8.8,0,1,0,0-1.6Z" transform="translate(-165.342 -341.426)"/>
          </g>
        </g>
        <g id="Group_17" data-name="Group 17" transform="translate(13.98 40.693)">
          <g id="Group_16" data-name="Group 16">
            <path id="Path_36" data-name="Path 36" class="cls-3" d="M195.7,424.1a2.8,2.8,0,1,0,2.8,2.8A2.8,2.8,0,0,0,195.7,424.1Zm0,3.994a1.2,1.2,0,1,1,1.2-1.2A1.2,1.2,0,0,1,195.7,428.1Z" transform="translate(-192.905 -424.104)"/>
          </g>
        </g>
        <g id="Group_19" data-name="Group 19" transform="translate(27.96 40.693)">
          <g id="Group_18" data-name="Group 18">
            <path id="Path_37" data-name="Path 37" class="cls-3" d="M388.607,424.1a2.8,2.8,0,1,0,2.8,2.8A2.8,2.8,0,0,0,388.607,424.1Zm0,3.994a1.2,1.2,0,1,1,1.2-1.2A1.2,1.2,0,0,1,388.607,428.1Z" transform="translate(-385.811 -424.104)"/>
          </g>
        </g>
      </g>
      <g id="cocktail" transform="translate(180 820.729)">
        <g id="Group_92" data-name="Group 92" transform="translate(0)">
          <path id="Path_94" data-name="Path 94" class="cls-3" d="M100.688,7.092a1.711,1.711,0,0,0-1.367-2.74H71.45a5.117,5.117,0,1,0-3.188,5.53L79.9,25.339a4.825,4.825,0,0,1,.963,2.88V42.806a5.761,5.761,0,0,1-4.719,5.668c-.284.045-2.8.513-3.326,2.864a.766.766,0,0,0,.748.932H85.476a.766.766,0,1,0,0-1.533H74.838a3.348,3.348,0,0,1,1.854-.811,7.288,7.288,0,0,0,5.7-7.121V28.219a6.224,6.224,0,0,0-.037-.67H84.49a6.227,6.227,0,0,0-.037.67V42.806a7.294,7.294,0,0,0,5.734,7.128,3.46,3.46,0,0,1,1.824.8H89.082a.766.766,0,1,0,0,1.533h4.2a.766.766,0,0,0,.748-.932c-.387-1.742-1.921-2.566-3.527-2.9a5.754,5.754,0,0,1-4.517-5.628V28.219a4.831,4.831,0,0,1,.963-2.88ZM66.392,8.7a3.585,3.585,0,1,1,3.5-4.352H67.528a1.711,1.711,0,0,0-1.367,2.74l1.127,1.5A3.566,3.566,0,0,1,66.392,8.7ZM84.848,26.016H82a6.269,6.269,0,0,0-.583-1.176l0,0c-.333-.534-.731-1.006-1.108-1.506-.61-.81-10.1-13.417-10.4-13.814a27.489,27.489,0,0,1,3.359.265c.524.071,1.047.155,1.568.247s1.016.188,1.522.292a.766.766,0,1,0,.306-1.5A33.281,33.281,0,0,0,68.764,8L67.385,6.17a.178.178,0,0,1,.142-.285H99.321a.178.178,0,0,1,.142.285l-2.05,2.722a11.661,11.661,0,0,1-2.563,1.254,17.272,17.272,0,0,1-6.47.8A46.852,46.852,0,0,1,80.159,9.6a.766.766,0,1,0-.345,1.493A49.326,49.326,0,0,0,88.1,12.465a19.115,19.115,0,0,0,7.253-.87l.038-.013L85.724,24.417a6.4,6.4,0,0,0-.876,1.6Z" transform="translate(-61.274)"/>
        </g>
      </g>
      <g id="big-light" transform="translate(40.588 837)">
        <path id="Path_95" data-name="Path 95" class="cls-9" d="M84.449,0a12.038,12.038,0,0,0-6.272,22.312l.385,2.841a2.673,2.673,0,0,0,2.59,2.358h6.594a2.673,2.673,0,0,0,2.59-2.358l.385-2.841A12.038,12.038,0,0,0,84.449,0Zm5.124,21.11a.81.81,0,0,0-.4.6l-.438,3.23a1.065,1.065,0,0,1-.986.957H81.152a1.065,1.065,0,0,1-.986-.957l-.438-3.23a.809.809,0,0,0-.4-.6,10.418,10.418,0,1,1,10.248,0Z"/>
        <path id="Path_96" data-name="Path 96" class="cls-9" d="M168.024,351.19h-8.479a.81.81,0,1,0,0,1.619h8.479a.81.81,0,0,0,0-1.619Z" transform="translate(-79.335 -322.761)"/>
        <path id="Path_97" data-name="Path 97" class="cls-9" d="M178.652,382.526h-6.426a.81.81,0,0,0-.81.81,4.023,4.023,0,0,0,8.045,0A.809.809,0,0,0,178.652,382.526Zm-3.213,3.213a2.408,2.408,0,0,1-2.263-1.594H177.7A2.408,2.408,0,0,1,175.439,385.739Z" transform="translate(-90.989 -351.56)"/>
        <path id="Path_98" data-name="Path 98" class="cls-9" d="M167.991,145.377c0-.015,0-.03,0-.045s0-.023,0-.034,0-.029-.005-.043,0-.025-.007-.037-.005-.026-.008-.039-.008-.027-.012-.04-.007-.023-.011-.034-.011-.027-.016-.041l-.014-.032c-.006-.012-.012-.025-.019-.037l-.019-.034-.02-.031-.026-.037-.009-.013-.012-.014-.031-.036-.024-.025-.033-.031-.028-.024-.033-.025-.032-.022-.033-.021-.036-.02-.033-.016-.04-.018-.033-.012-.044-.014-.018-.006-.016,0-.043-.009-.038-.007-.037,0-.043,0h-.079l-.033,0-.044.005-.036.007-.04.009-.039.011-.035.011-.039.016-.034.015-.036.019-.035.02-.031.02-.037.026-.013.009-1.662,1.3-1.662-1.3a.81.81,0,0,0-1,0l-1.662,1.3-1.662-1.3-.013-.009-.037-.026-.031-.02-.034-.019-.037-.019-.032-.014-.04-.016-.034-.011-.04-.012-.039-.008-.037-.007-.043-.005-.034,0h-.079l-.043,0-.038,0-.038.006-.043.009-.016,0-.018.006-.044.014-.033.012-.04.018-.033.016-.036.02-.033.021-.032.022-.033.025-.028.024-.032.03-.024.025-.03.035-.012.014-.009.013-.025.036-.021.032-.019.033c-.007.012-.013.025-.019.038l-.014.032c-.006.014-.011.027-.017.041s-.007.022-.011.033-.008.027-.012.041-.006.025-.008.038-.005.025-.007.037,0,.029-.005.043,0,.023,0,.034,0,.03,0,.045,0,.023,0,.034,0,.029,0,.043,0,.025,0,.038,0,.025.006.038.006.029.009.043,0,.011,0,.016l3.116,11.653a.81.81,0,0,0,1.564-.418l-2.49-9.314.255.2a.81.81,0,0,0,1,0l1.662-1.3,1.662,1.3a.81.81,0,0,0,1,0l.255-.2-2.49,9.314a.81.81,0,1,0,1.564.418l3.116-11.653c0-.005,0-.011,0-.016s.006-.029.009-.043,0-.025.006-.038,0-.025,0-.038,0-.029,0-.043S167.991,145.388,167.991,145.377Z" transform="translate(-78.411 -132.866)"/>
      </g>
      <g id="star_1_" data-name="star (1)" transform="translate(257 837)">
        <path id="star_1_2" data-name="star (1)" class="cls-3" d="M8.431,36.59A2,2,0,0,1,6.48,34.141L8.9,23.467.685,16.26a2,2,0,0,1,1.135-3.5l10.874-.987,4.3-10.061a2,2,0,0,1,3.682,0l4.3,10.062,10.872.987a2,2,0,0,1,1.138,3.5l-8.218,7.206L31.189,34.14A2,2,0,0,1,28.21,36.3l-9.376-5.6L9.458,36.306A2.006,2.006,0,0,1,8.431,36.59Zm10.4-8.3a2.007,2.007,0,0,1,1.027.284l8.849,5.293L26.422,23.787a2,2,0,0,1,.634-1.951l7.76-6.805L24.55,14.1a2,2,0,0,1-1.664-1.213L18.834,3.391l-4.057,9.5A1.994,1.994,0,0,1,13.118,14.1L2.85,15.028l7.759,6.805a2,2,0,0,1,.634,1.953L8.958,33.86l8.849-5.291A2.006,2.006,0,0,1,18.834,28.286ZM12.611,11.964a0,0,0,0,1,0,0Zm12.443,0,0,0S25.056,11.961,25.054,11.959Zm0,0" transform="translate(0 -0.492)"/>
      </g>
    </g>
    <g id="iPhone" transform="translate(206.011 1961.11)">
      <path id="Bezel" d="M1363.37,1014.574v-136.9c0-35.153-28-63.675-62.519-63.675H1003.642c-34.523,0-62.5,28.522-62.5,63.675v54.2A6.2,6.2,0,0,0,937,937.731v21.645a6.2,6.2,0,0,0,4.142,5.878V990.46A6.2,6.2,0,0,0,937,996.338v54.972a6.179,6.179,0,0,0,4.142,5.859v16.107a6.2,6.2,0,0,0-4.142,5.859v54.971a6.2,6.2,0,0,0,4.142,5.878v483.669c0,35.167,27.982,63.675,62.5,63.675h297.209c34.528,0,62.519-28.517,62.519-63.694V1118.678a6.176,6.176,0,0,0,4.475-5.972v-92.16A6.176,6.176,0,0,0,1363.37,1014.574Zm-8.266,609.832c0,30.481-24.26,55.2-54.179,55.2H1003.587c-29.937,0-54.2-24.716-54.2-55.2V876.919c0-30.481,24.26-55.2,54.2-55.2h297.338c29.919,0,54.179,24.716,54.179,55.2Z" transform="translate(-0.007 0)"/>
      <path id="Bezel-2" data-name="Bezel" class="cls-10" d="M1325.64,836H1028.853c-29.882,0-54.1,24.7-54.1,55.167v747.071c0,30.465,24.215,55.167,54.1,55.167H1325.64c29.863,0,54.079-24.7,54.079-55.167V891.162C1379.719,860.7,1355.5,836,1325.64,836Zm42.4,803.745c0,22.274-17.7,40.33-39.553,40.33H1025.991c-21.834,0-39.535-18.056-39.535-40.33V889.656c0-22.274,17.7-40.33,39.535-40.33h40.735v.339a5.737,5.737,0,0,1,5.666,5.781,24.6,24.6,0,0,0,7,17.247,23.592,23.592,0,0,0,16.888,7.136h160.889a24.135,24.135,0,0,0,23.883-24.383,5.843,5.843,0,0,1,1.68-4.086,5.609,5.609,0,0,1,4.005-1.694v-.339h41.75c21.853,0,39.553,18.056,39.553,40.33Z" transform="translate(-24.832 -14.464)"/>
      <path id="Shape_5" data-name="Shape 5" d="M0,204.514V147a4.583,4.583,0,0,1,4.527-4.638v66.784A4.583,4.583,0,0,1,0,204.514ZM426.321,83.18a4.584,4.584,0,0,1,4.527,4.638v95.237a4.583,4.583,0,0,1-4.527,4.638ZM0,121.057V63.548a4.584,4.584,0,0,1,4.527-4.638V125.7A4.584,4.584,0,0,1,0,121.057Zm0-92.11V4.638A4.584,4.584,0,0,1,4.527,0V33.585A4.583,4.583,0,0,1,0,28.948Z" transform="translate(936.989 930.755)"/>
      <path id="Shape_6" data-name="Shape 6" class="cls-11" d="M.365,21.257a7.49,7.49,0,0,1,4.752-9.419,7.389,7.389,0,0,1,9.33,4.8,7.49,7.49,0,0,1-4.752,9.419,7.337,7.337,0,0,1-2.29.368A7.413,7.413,0,0,1,.365,21.257ZM129.41,18.25a7.473,7.473,0,1,1,7.473,7.4A7.439,7.439,0,0,1,129.41,18.25ZM67.84,21.206a3.477,3.477,0,0,1,0-6.953h45.455a3.477,3.477,0,0,1,0,6.953Zm-.517-11.82a4.693,4.693,0,0,1,0-9.386h46.488a4.693,4.693,0,0,1,0,9.386Z" transform="translate(1060.836 830.948)"/>
    </g>
  </g>
</svg>
