<svg xmlns="http://www.w3.org/2000/svg" width="76" height="48" viewBox="0 0 76 48">
  <defs>
    <style>
      .cls-1, .cls-4 {
        fill: none;
      }

      .cls-1 {
        stroke: #ffb32a;
        stroke-width: 2px;
      }

      .cls-2 {
        fill: #ffb32a;
      }

      .cls-3 {
        stroke: none;
      }
    </style>
  </defs>
  <g id="Group_149" data-name="Group 149" transform="translate(-3548 -7097.324)">
    <g id="Rectangle_31" data-name="Rectangle 31" class="cls-1" transform="translate(3548 7097.324)">
      <rect class="cls-3" width="76" height="48" rx="9"/>
      <rect class="cls-4" x="1" y="1" width="74" height="46" rx="8"/>
    </g>
    <path id="star_1_" data-name="star (1)" class="cls-2" d="M5.133,22.469a1.221,1.221,0,0,1-1.188-1.491l1.475-6.5-5-4.388a1.22,1.22,0,0,1,.691-2.133l6.62-.6,2.617-6.125a1.219,1.219,0,0,1,2.242,0L15.2,7.358l6.619.6a1.22,1.22,0,0,1,.693,2.133l-5,4.387,1.475,6.5a1.218,1.218,0,0,1-1.814,1.317l-5.709-3.411L5.758,22.3A1.222,1.222,0,0,1,5.133,22.469Zm6.334-5.056a1.222,1.222,0,0,1,.625.173l5.387,3.222-1.392-6.134a1.219,1.219,0,0,1,.386-1.188L21.2,9.344l-6.25-.568a1.217,1.217,0,0,1-1.013-.739l-2.467-5.78L9,8.038a1.214,1.214,0,0,1-1.01.736l-6.251.568,4.724,4.143a1.216,1.216,0,0,1,.386,1.189L5.454,20.807l5.387-3.221A1.221,1.221,0,0,1,11.467,17.413ZM7.678,7.476a0,0,0,0,1,0,0Zm7.576,0v0S15.255,7.474,15.253,7.474Zm0,0" transform="translate(3574.876 7109.522)"/>
  </g>
</svg>
