<svg xmlns="http://www.w3.org/2000/svg" width="143.043" height="149.533" viewBox="0 0 143.043 149.533">
  <defs>
    <style>
      .cls-1 {
        fill: #f2d492;
      }

      .cls-2 {
        fill: #ffb32a;
      }
    </style>
  </defs>
  <g id="Group_148" data-name="Group 148" transform="translate(-2234.52 -3168.785)">
    <g id="Group_147" data-name="Group 147" transform="translate(1348 1857.785)">
      <path id="Path_44" data-name="Path 44" class="cls-1" d="M493.7,192.42a4.644,4.644,0,0,0-1.668-1.181,5.265,5.265,0,0,0-2.081-.39h-23.03a2.888,2.888,0,0,0-1.733.56l-.04.031a3.644,3.644,0,0,0-1.019,1.341c0,.009-.009.018-.012.028a7.368,7.368,0,0,0-.489,1.84,18.217,18.217,0,0,0-.139,2.5,10.9,10.9,0,0,0,.639,4.334l.011.024a3.018,3.018,0,0,0,2.782,1.912h11.466v12.806a16.383,16.383,0,0,1-3.11,1.021,20.553,20.553,0,0,1-4.271.458,23.576,23.576,0,0,1-8.148-1.347,16.978,16.978,0,0,1-6.2-3.93,18.612,18.612,0,0,1-4.053-6.561,22.827,22.827,0,0,1-.949-3.471,1.432,1.432,0,0,0-1.669-1.089,1.361,1.361,0,0,0-1.155,1.572,25.362,25.362,0,0,0,1.062,3.876,21.3,21.3,0,0,0,4.661,7.514,19.866,19.866,0,0,0,7.254,4.608,26.581,26.581,0,0,0,9.195,1.534,23.589,23.589,0,0,0,4.917-.528,19.219,19.219,0,0,0,4.583-1.636,1.344,1.344,0,0,0,.751-1.189v-14.99a1.4,1.4,0,0,0-1.435-1.353h-12.86a1.162,1.162,0,0,1-.2-.313,8.586,8.586,0,0,1-.4-3.252,15.7,15.7,0,0,1,.112-2.142,4.683,4.683,0,0,1,.3-1.164,1.128,1.128,0,0,1,.183-.291h23a2.306,2.306,0,0,1,.9.147l.02.009a1.793,1.793,0,0,1,.658.473,2.215,2.215,0,0,1,.47.814l.009.027a4.242,4.242,0,0,1,.2,1.365v25.639a4.412,4.412,0,0,1-.418,2.029l-.012.023a2.666,2.666,0,0,1-1.483,1.063l-.025.01c-.991.385-2.3.8-4.095,1.306-1.8.486-3.473.866-5.122,1.158l-.016,0a51.985,51.985,0,0,1-5.332.724l-.015,0c-1.78.164-3.6.247-5.42.247a43.872,43.872,0,0,1-14.155-2.139,28.707,28.707,0,0,1-10.418-6.1,26.453,26.453,0,0,1-6.521-9.751,39.569,39.569,0,0,1,.16-26.95,28.412,28.412,0,0,1,6.835-10.221,29.975,29.975,0,0,1,10.7-6.42,41.919,41.919,0,0,1,14.1-2.253,49.268,49.268,0,0,1,7.836.557,46.14,46.14,0,0,1,6.157,1.362,24.1,24.1,0,0,1,4.228,1.652,9.961,9.961,0,0,1,2.157,1.406c.012.012.024.024.037.036a2.608,2.608,0,0,1,.638,1.3l.008.032a14.479,14.479,0,0,1,.283,3.426,18.653,18.653,0,0,1-.115,2.312,5.8,5.8,0,0,1-.3,1.35l-.007.016a2.222,2.222,0,0,1-.09.209,6.44,6.44,0,0,1-1.407-.682,35.664,35.664,0,0,0-4.244-2.037,46.824,46.824,0,0,0-6.228-2.016,34.93,34.93,0,0,0-8.523-.945,25.449,25.449,0,0,0-9.509,1.72,21.053,21.053,0,0,0-7.356,4.919,21.883,21.883,0,0,0-4.659,7.578,24.719,24.719,0,0,0-.96,3.29,1.356,1.356,0,0,0,1.116,1.6,1.434,1.434,0,0,0,1.695-1.052,22.074,22.074,0,0,1,.86-2.944,18.935,18.935,0,0,1,4.08-6.658,18.187,18.187,0,0,1,6.353-4.242,22.434,22.434,0,0,1,8.381-1.5,31.965,31.965,0,0,1,7.777.852,43.637,43.637,0,0,1,5.827,1.885,32.813,32.813,0,0,1,3.879,1.857,6.24,6.24,0,0,0,2.973,1.1,2.851,2.851,0,0,0,1.658-.516,3.043,3.043,0,0,0,1.074-1.489,8.294,8.294,0,0,0,.456-1.965,20.888,20.888,0,0,0,.136-2.638,17.129,17.129,0,0,0-.361-4.054,5.135,5.135,0,0,0-1.389-2.6,12.19,12.19,0,0,0-2.833-1.9,27.027,27.027,0,0,0-4.754-1.87,48.967,48.967,0,0,0-6.556-1.455,52.317,52.317,0,0,0-8.32-.6,44.931,44.931,0,0,0-15.115,2.427,32.857,32.857,0,0,0-11.721,7.044,31.062,31.062,0,0,0-7.484,11.172,42.1,42.1,0,0,0-.167,28.843,29.12,29.12,0,0,0,7.189,10.732A31.56,31.56,0,0,0,455.132,229a46.845,46.845,0,0,0,15.135,2.3c1.906,0,3.822-.087,5.691-.26a54.778,54.778,0,0,0,5.63-.765c1.737-.309,3.5-.705,5.389-1.219,1.9-.533,3.29-.978,4.372-1.4a5.155,5.155,0,0,0,3.033-2.446,6.925,6.925,0,0,0,.693-3.183V196.39a6.783,6.783,0,0,0-.335-2.183,4.9,4.9,0,0,0-1.039-1.787" transform="translate(456.119 1229.234)"/>
      <path id="Path_43" data-name="Path 43" class="cls-1" d="M457.113,212.477a1.355,1.355,0,1,0,1.437,1.353,1.4,1.4,0,0,0-1.437-1.353Z" transform="translate(448.707 1211.981)"/>
      <path id="Path_46" data-name="Path 46" class="cls-1" d="M590.486,184.266a14.17,14.17,0,0,0-5.52-4.981,18.571,18.571,0,0,0-8.4-1.731,17.224,17.224,0,0,0-8.536,1.958,15.921,15.921,0,0,0-5.6,5.215,21.1,21.1,0,0,0-2.944,7.442c-.166.835-.31,1.695-.426,2.555a1.33,1.33,0,1,0,2.635.357c.109-.8.243-1.608.4-2.387a18.453,18.453,0,0,1,2.559-6.5,13.271,13.271,0,0,1,4.676-4.35,14.618,14.618,0,0,1,7.233-1.618,15.98,15.98,0,0,1,7.2,1.441,11.533,11.533,0,0,1,4.492,4.051,18.283,18.283,0,0,1,2.462,6.53,47.7,47.7,0,0,1,.76,8.829,43.1,43.1,0,0,1-.776,8.35,18.97,18.97,0,0,1-2.563,6.609,12.911,12.911,0,0,1-4.67,4.359,14.65,14.65,0,0,1-7.233,1.6,16.6,16.6,0,0,1-7.262-1.4,10.76,10.76,0,0,1-4.432-3.995,19.054,19.054,0,0,1-2.454-6.627c-.192-1.024-.349-2.111-.469-3.231a1.33,1.33,0,1,0-2.644.284c.126,1.19.295,2.348.5,3.44a21.711,21.711,0,0,0,2.817,7.556,13.536,13.536,0,0,0,5.509,4.966,19.18,19.18,0,0,0,8.436,1.673,17.224,17.224,0,0,0,8.528-1.937,15.526,15.526,0,0,0,5.611-5.244,21.611,21.611,0,0,0,2.937-7.534,45.739,45.739,0,0,0,.826-8.87,50.33,50.33,0,0,0-.807-9.328,20.923,20.923,0,0,0-2.84-7.479" transform="translate(413.365 1223.931)"/>
      <path id="Path_45" data-name="Path 45" class="cls-1" d="M598.514,180.268a26.843,26.843,0,0,0-5.862-10.507,23.525,23.525,0,0,0-9.712-6.24,40.152,40.152,0,0,0-13.106-1.979,36.557,36.557,0,0,0-13.716,2.4,26.572,26.572,0,0,0-10.03,6.949,29.575,29.575,0,0,0-6.1,10.938,47.129,47.129,0,0,0-2.013,14.231,52.5,52.5,0,0,0,1.89,14.877,26.683,26.683,0,0,0,5.783,10.6,23.668,23.668,0,0,0,9.705,6.255,40.143,40.143,0,0,0,13.3,2.014,36.761,36.761,0,0,0,13.666-2.369,26.434,26.434,0,0,0,10.03-6.966,29.571,29.571,0,0,0,6.1-11.042,48.577,48.577,0,0,0,2.012-14.494,50.072,50.072,0,0,0-1.944-14.674m-2.6,28.367a26.939,26.939,0,0,1-5.544,10.063,23.791,23.791,0,0,1-9.036,6.269,34.14,34.14,0,0,1-12.678,2.179,37.53,37.53,0,0,1-12.416-1.864,20.762,20.762,0,0,1-8.633-5.549,24.076,24.076,0,0,1-5.187-9.558,49.878,49.878,0,0,1-1.778-14.113,44.469,44.469,0,0,1,1.888-13.422,26.931,26.931,0,0,1,5.543-9.964,23.938,23.938,0,0,1,9.044-6.257,33.924,33.924,0,0,1,12.723-2.21,37.516,37.516,0,0,1,12.235,1.832,20.9,20.9,0,0,1,8.636,5.537,24.215,24.215,0,0,1,5.269,9.481,47.455,47.455,0,0,1,1.824,13.883,45.927,45.927,0,0,1-1.889,13.693" transform="translate(420.546 1229.41)"/>
      <path id="Path_48" data-name="Path 48" class="cls-1" d="M559.836,213.667a1.333,1.333,0,0,0,0-2.667h0a1.333,1.333,0,0,0,0,2.667" transform="translate(413.521 1212.486)"/>
      <path id="Path_47" data-name="Path 47" class="cls-2" d="M533,42.79a2.794,2.794,0,1,1,2.794,2.79A2.792,2.792,0,0,1,533,42.79" transform="translate(422.249 1271)"/>
      <path id="Path_42" data-name="Path 42" class="cls-2" d="M431.314,113.156H568.77a2.792,2.792,0,0,0,2.794-2.791c0-33.577-25.289-62.393-58.491-68.564a2.791,2.791,0,1,0-1.023,5.487c29.793,5.537,52.486,31.179,53.861,60.287H553.887c-1.485-27.8-25.372-50.231-53.846-50.231S447.68,79.779,446.2,107.578H434.173c1.374-29.108,24.067-54.753,53.859-60.29a2.791,2.791,0,1,0-1.022-5.487c-33.11,6.153-58.491,34.9-58.491,68.564a2.793,2.793,0,0,0,2.794,2.791m80.447-18.43a19.343,19.343,0,0,0-8.926-3.7V63.008a48.392,48.392,0,0,1,28.918,11.749Zm-14.513-3.7a19.345,19.345,0,0,0-8.9,3.675l-20-19.973a48.416,48.416,0,0,1,28.895-11.726Zm2.794,5.382a13.971,13.971,0,0,1,13.69,11.166h-27.38a13.966,13.966,0,0,1,13.69-11.166m48.246,11.162H519.4a19.313,19.313,0,0,0-3.688-8.9l20.064-20.043a46.438,46.438,0,0,1,12.512,28.942M464.33,78.607l20.063,20.039a19.313,19.313,0,0,0-3.709,8.932H451.8A46.464,46.464,0,0,1,464.33,78.607" transform="translate(458 1270.4)"/>
    </g>
  </g>
</svg>
