<svg xmlns="http://www.w3.org/2000/svg" width="87.372" height="61.111" viewBox="0 0 87.372 61.111">
  <defs>
    <style>
      .cls-1 {
        fill: #ffb32a;
      }
    </style>
  </defs>
  <g id="paypal" transform="translate(0 -76.943)">
    <g id="Group_132" data-name="Group 132" transform="translate(0 76.943)">
      <g id="Group_131" data-name="Group 131">
        <path id="Path_115" data-name="Path 115" class="cls-1" d="M85.992,90.072a1.379,1.379,0,0,0,1.38-1.38V83.324a6.388,6.388,0,0,0-6.381-6.381H6.381A6.388,6.388,0,0,0,0,83.324v48.349a6.388,6.388,0,0,0,6.381,6.381h74.61a6.388,6.388,0,0,0,6.381-6.381v-38.5a1.38,1.38,0,1,0-2.759,0v38.5a3.626,3.626,0,0,1-3.622,3.622H6.381a3.626,3.626,0,0,1-3.622-3.622V83.324A3.626,3.626,0,0,1,6.381,79.7H80.99a3.626,3.626,0,0,1,3.622,3.622v5.368A1.38,1.38,0,0,0,85.992,90.072Z" transform="translate(0 -76.943)"/>
      </g>
    </g>
    <g id="Group_134" data-name="Group 134" transform="translate(24.451 85.341)">
      <g id="Group_133" data-name="Group 133">
        <path id="Path_116" data-name="Path 116" class="cls-1" d="M181.151,141.23l-.007-.021a8.312,8.312,0,0,0-2.474-3.536c.142-3.42-.588-5.675-2.5-7.866-2.119-2.422-5.854-3.65-11.1-3.65H151.817a3.637,3.637,0,0,0-3.162,2.531,1.37,1.37,0,0,0-.055.229l-5.3,34.7a1.393,1.393,0,0,0-.016.208,2.584,2.584,0,0,0,2.438,2.7h6.585l-.345,2.106a1.383,1.383,0,0,0-.018.224,2.333,2.333,0,0,0,2.439,2.438h6.6a3.221,3.221,0,0,0,3.218-2.66c.007-.029.012-.059.017-.089l1.324-8.211c.005-.032.009-.064.012-.1a.58.58,0,0,1,.6-.6h.676a15.907,15.907,0,0,0,9.41-2.574c2.761-1.972,4.509-5.058,5.194-9.173A13.689,13.689,0,0,0,181.151,141.23Zm-28.388,22.539H146.07l5.235-34.292a1.136,1.136,0,0,1,.527-.561h13.23c4.356,0,7.477.936,9.027,2.707a6.885,6.885,0,0,1,1.818,4.484,13.365,13.365,0,0,0-3.79-.677c-.044,0-.088-.006-.133-.006h-3.863c-.031,0-.061,0-.092,0h-8.056a3.26,3.26,0,0,0-3.158,2.744c0,.023-.009.046-.012.069l-2.11,13.712Zm23.091-24.678c-.018.083-.039.163-.058.246q-.023.1-.047.2c-.016.066-.031.133-.047.2-.023.091-.049.179-.073.268-.015.054-.029.108-.044.161-.019.07-.038.141-.057.21-.027.092-.056.181-.084.272l-.034.108c-.025.079-.049.16-.074.239s-.064.183-.1.274l-.023.064c-.03.086-.059.173-.091.258s-.073.184-.109.276L175,141.9c-.035.089-.069.179-.105.266s-.081.185-.122.277-.081.187-.123.277-.088.179-.132.268-.086.178-.131.265-.1.174-.143.261-.09.169-.138.251-.1.169-.154.253-.1.16-.145.238-.11.164-.166.246-.1.15-.151.223-.119.16-.179.239-.1.14-.156.208-.127.154-.19.23-.107.132-.163.2-.134.148-.2.221-.112.125-.169.185-.143.142-.215.212-.115.116-.174.172-.151.135-.226.2c-.06.054-.119.109-.181.161-.078.066-.159.128-.238.192-.062.05-.123.1-.187.15-.082.063-.168.122-.252.183-.064.046-.127.094-.192.139-.087.059-.176.115-.265.172-.066.042-.13.087-.2.128-.092.056-.187.109-.281.163-.067.038-.132.078-.2.116-.1.053-.2.1-.3.154-.068.035-.133.071-.2.1-.1.049-.2.094-.307.141-.071.032-.139.066-.211.1-.1.045-.211.086-.317.128-.073.029-.145.06-.219.088-.108.041-.218.078-.327.116-.076.026-.15.055-.227.08-.11.036-.223.069-.335.1-.08.024-.158.05-.239.073-.113.032-.229.06-.343.09-.083.021-.165.045-.249.065-.119.029-.241.053-.363.08-.083.018-.164.038-.248.054-.123.024-.25.045-.376.068-.085.015-.168.032-.254.045-.127.02-.257.037-.387.055-.088.012-.173.026-.262.037-.132.016-.267.029-.4.043-.089.009-.176.02-.266.029-.134.012-.271.021-.407.03-.093.007-.185.015-.279.021-.149.009-.3.014-.453.02-.084,0-.167.009-.252.011q-.357.01-.724.01h-3.974l-.083,0,1.7-11.033c.107-.477.343-.506.526-.514h8.077c.031,0,.061,0,.092,0h3.675l.06,0a10.425,10.425,0,0,1,3.506.7c.106.047.238.11.387.19Zm2.864,8.35c-1.059,6.353-4.946,9.441-11.883,9.441h-.676a3.344,3.344,0,0,0-3.343,3.055l-1.309,8.117c-.122.482-.333.482-.52.482h-6.211l.507-3.092c.005-.024.01-.049.014-.073l1.965-12,.009-.018.013-.026.011-.023c.007-.014.014-.028.021-.042.017-.04.033-.08.047-.122a1.151,1.151,0,0,1,.56-.646h3.959q.419,0,.827-.012c.091,0,.18-.008.27-.012.18-.007.361-.014.538-.025.106-.006.209-.015.314-.023.159-.012.317-.023.474-.037.111-.01.219-.023.329-.034.147-.016.295-.031.44-.05.111-.014.222-.03.332-.046.14-.02.279-.04.417-.062.111-.018.22-.037.33-.057q.2-.036.4-.075c.109-.022.217-.045.325-.068q.194-.042.385-.088l.317-.078c.126-.032.25-.067.374-.1.1-.029.206-.058.307-.089.123-.037.243-.076.364-.115.1-.032.2-.064.3-.1.12-.042.239-.086.357-.13.095-.035.19-.07.283-.107.12-.048.238-.1.356-.148.088-.038.177-.074.264-.113.125-.056.247-.116.37-.175.076-.037.154-.072.23-.11.168-.085.333-.173.5-.264l.187-.107c.15-.087.3-.174.446-.265.073-.046.144-.095.216-.142.108-.07.216-.14.322-.214.078-.054.153-.111.229-.166.1-.07.194-.14.288-.213.077-.06.153-.122.229-.183s.18-.145.268-.22.15-.131.224-.2.17-.152.253-.23.145-.139.217-.21.161-.159.24-.241.14-.147.209-.221.153-.168.229-.253.134-.153.2-.232.146-.177.218-.267.127-.16.189-.241.14-.188.209-.283.119-.164.177-.248c.069-.1.135-.2.2-.3.054-.083.11-.166.163-.251.068-.108.133-.219.2-.329.049-.083.1-.164.147-.248.07-.124.138-.251.205-.378.04-.075.081-.147.12-.223q.151-.294.292-.6c.019-.041.037-.084.056-.126.081-.179.161-.359.237-.544.034-.081.065-.165.1-.247.056-.141.113-.282.166-.426.035-.094.067-.19.1-.285.048-.137.1-.273.142-.412.033-.1.064-.2.1-.306s.064-.2.093-.3a5.622,5.622,0,0,1,.4.872A11.215,11.215,0,0,1,178.718,147.441Z" transform="translate(-143.286 -126.157)"/>
      </g>
    </g>
  </g>
</svg>
