<svg xmlns="http://www.w3.org/2000/svg" width="61.5" height="10.871" viewBox="0 0 61.5 10.871">
  <defs>
    <style>
      .cls-1 {
        fill: #ffb32a;
      }
    </style>
  </defs>
  <g id="rating_1_" data-name="rating (1)" transform="translate(0 -210.746)">
    <g id="Group_41" data-name="Group 41" transform="translate(0 210.746)">
      <g id="Group_40" data-name="Group 40" transform="translate(0 0)">
        <path id="Path_68" data-name="Path 68" class="cls-1" d="M11.354,214.814a.783.783,0,0,0-.633-.532l-2.991-.435-1.336-2.7a.815.815,0,0,0-1.4,0l-1.336,2.7-2.984.435a.783.783,0,0,0-.434,1.335L2.4,217.726,1.89,220.7a.783.783,0,0,0,1.137.825l2.665-1.405,2.673,1.405a.781.781,0,0,0,.364.09.8.8,0,0,0,.461-.149A.786.786,0,0,0,9.5,220.7l-.51-2.976,2.164-2.109A.782.782,0,0,0,11.354,214.814Z" transform="translate(0 -210.746)"/>
      </g>
    </g>
    <g id="Group_43" data-name="Group 43" transform="translate(12.527 210.746)">
      <g id="Group_42" data-name="Group 42" transform="translate(0 0)">
        <path id="Path_69" data-name="Path 69" class="cls-1" d="M115.643,214.814a.783.783,0,0,0-.633-.532l-2.991-.435-1.336-2.7a.815.815,0,0,0-1.4,0l-1.336,2.7-2.984.435a.783.783,0,0,0-.434,1.335l2.164,2.109-.51,2.976a.783.783,0,0,0,1.137.825l2.665-1.405,2.673,1.405a.781.781,0,0,0,.364.09.8.8,0,0,0,.461-.149.785.785,0,0,0,.312-.766l-.51-2.976,2.164-2.109A.781.781,0,0,0,115.643,214.814Z" transform="translate(-104.289 -210.746)"/>
      </g>
    </g>
    <g id="Group_45" data-name="Group 45" transform="translate(25.054 210.746)">
      <g id="Group_44" data-name="Group 44" transform="translate(0 0)">
        <path id="Path_70" data-name="Path 70" class="cls-1" d="M219.932,214.814a.783.783,0,0,0-.633-.532l-2.991-.435-1.336-2.7a.815.815,0,0,0-1.4,0l-1.336,2.7-2.984.435a.783.783,0,0,0-.434,1.335l2.164,2.109-.511,2.976a.783.783,0,0,0,1.137.825l2.665-1.405,2.673,1.405a.781.781,0,0,0,.364.09.8.8,0,0,0,.461-.149.785.785,0,0,0,.312-.766l-.51-2.976,2.164-2.109A.781.781,0,0,0,219.932,214.814Z" transform="translate(-208.578 -210.746)"/>
      </g>
    </g>
    <g id="Group_47" data-name="Group 47" transform="translate(37.581 210.746)">
      <g id="Group_46" data-name="Group 46" transform="translate(0 0)">
        <path id="Path_71" data-name="Path 71" class="cls-1" d="M324.221,214.814a.783.783,0,0,0-.633-.532l-2.991-.435-1.336-2.7a.815.815,0,0,0-1.4,0l-1.336,2.7-2.984.435a.783.783,0,0,0-.434,1.335l2.164,2.109-.511,2.976a.783.783,0,0,0,1.137.825l2.665-1.405,2.673,1.405a.781.781,0,0,0,.364.09.8.8,0,0,0,.461-.149.786.786,0,0,0,.312-.766l-.51-2.976,2.164-2.109A.782.782,0,0,0,324.221,214.814Z" transform="translate(-312.867 -210.746)"/>
      </g>
    </g>
    <g id="Group_49" data-name="Group 49" transform="translate(50.108 210.746)">
      <g id="Group_48" data-name="Group 48" transform="translate(0 0)">
        <path id="Path_72" data-name="Path 72" class="cls-1" d="M428.51,214.814a.785.785,0,0,0-.633-.532l-2.991-.435-1.336-2.7a.815.815,0,0,0-1.4,0l-1.336,2.7-2.984.435a.783.783,0,0,0-.434,1.335l2.164,2.109-.51,2.976a.784.784,0,0,0,1.138.825l2.665-1.405,2.674,1.405a.782.782,0,0,0,1.135-.825l-.51-2.976,2.164-2.109A.783.783,0,0,0,428.51,214.814Z" transform="translate(-417.156 -210.746)"/>
      </g>
    </g>
  </g>
</svg>
