<svg xmlns="http://www.w3.org/2000/svg" width="37.668" height="36.098" viewBox="0 0 37.668 36.098">
  <defs>
    <style>
      .cls-1 {
        fill: #ffb32a;
      }
    </style>
  </defs>
  <path id="star_1_" data-name="star (1)" class="cls-1" d="M8.431,36.59A2,2,0,0,1,6.48,34.141L8.9,23.467.685,16.26a2,2,0,0,1,1.135-3.5l10.874-.987,4.3-10.061a2,2,0,0,1,3.682,0l4.3,10.062,10.872.987a2,2,0,0,1,1.138,3.5l-8.218,7.206L31.189,34.14A2,2,0,0,1,28.21,36.3l-9.376-5.6L9.458,36.306A2.006,2.006,0,0,1,8.431,36.59Zm10.4-8.3a2.007,2.007,0,0,1,1.027.284l8.849,5.293L26.422,23.787a2,2,0,0,1,.634-1.951l7.76-6.805L24.55,14.1a2,2,0,0,1-1.664-1.213L18.834,3.391l-4.057,9.5A1.994,1.994,0,0,1,13.118,14.1L2.85,15.028l7.759,6.805a2,2,0,0,1,.634,1.953L8.958,33.86l8.849-5.291A2.006,2.006,0,0,1,18.834,28.286ZM12.611,11.964a0,0,0,0,1,0,0Zm12.443,0,0,0S25.056,11.961,25.054,11.959Zm0,0" transform="translate(0 -0.492)"/>
</svg>
