<svg xmlns="http://www.w3.org/2000/svg" width="128.194" height="122.247" viewBox="0 0 128.194 122.247">
  <defs>
    <style>
      .cls-1 {
        fill: #fdbf00;
      }

      .cls-2 {
        fill: #ff9f00;
      }
    </style>
  </defs>
  <g id="star_3_" data-name="star (3)" transform="translate(0 -11.877)">
    <path id="Path_165" data-name="Path 165" class="cls-1" d="M125.169,56.039,83.647,52.188l-16.494-38.3a3.327,3.327,0,0,0-6.112,0l-16.494,38.3L3.024,56.039a3.327,3.327,0,0,0-1.889,5.813L32.464,89.374,23.3,130.055a3.327,3.327,0,0,0,4.945,3.592L64.1,112.357l35.856,21.291a3.327,3.327,0,0,0,4.945-3.592L95.729,89.374l31.329-27.522A3.327,3.327,0,0,0,125.169,56.039Z" transform="translate(0)"/>
    <path id="Path_166" data-name="Path 166" class="cls-2" d="M67.153,13.888a3.327,3.327,0,0,0-6.112,0l-16.494,38.3L3.024,56.039a3.327,3.327,0,0,0-1.889,5.813L32.464,89.374,23.3,130.055a3.327,3.327,0,0,0,4.945,3.592l8-4.752c1.108-45.594,22.292-77.7,39.065-96.07Z" transform="translate(0)"/>
  </g>
</svg>
