<svg xmlns="http://www.w3.org/2000/svg" width="26.194" height="19.644" viewBox="0 0 26.194 19.644">
  <defs>
    <style>
      .cls-1 {
        fill: #a6adc1;
      }
    </style>
  </defs>
  <g id="visibility" transform="translate(0 -64.008)">
    <g id="Group_136" data-name="Group 136" transform="translate(9.85 70.584)">
      <g id="Group_135" data-name="Group 135" transform="translate(0 0)">
        <path id="Path_117" data-name="Path 117" class="cls-1" d="M198.883,192.7a.546.546,0,0,0-.772.772,3.274,3.274,0,1,1-4.63,4.63.546.546,0,0,0-.772.772,4.365,4.365,0,1,0,6.173-6.173Z" transform="translate(-192.55 -192.542)"/>
      </g>
    </g>
    <g id="Group_138" data-name="Group 138" transform="translate(8.731 69.464)">
      <g id="Group_137" data-name="Group 137" transform="translate(0 0)">
        <path id="Path_118" data-name="Path 118" class="cls-1" d="M175.794,170.734a4.322,4.322,0,0,0-5.126,4.29,4.273,4.273,0,0,0,.076.761.546.546,0,0,0,.536.451.484.484,0,0,0,.1-.009.546.546,0,0,0,.442-.632,3.164,3.164,0,0,1-.059-.571,3.235,3.235,0,0,1,3.845-3.216.545.545,0,1,0,.19-1.074Z" transform="translate(-170.668 -170.659)"/>
      </g>
    </g>
    <g id="Group_140" data-name="Group 140" transform="translate(6.826 67.715)">
      <g id="Group_139" data-name="Group 139" transform="translate(0 0)">
        <path id="Path_119" data-name="Path 119" class="cls-1" d="M152.673,142.224a26.51,26.51,0,0,0-7.148-5.7.546.546,0,1,0-.5.97,25.646,25.646,0,0,1,6.5,5.084c-1.3,1.409-6.421,6.548-11.818,6.548a12.583,12.583,0,0,1-5.488-1.315.545.545,0,0,0-.474.982,13.647,13.647,0,0,0,5.961,1.424c6.724,0,12.716-6.989,12.968-7.287A.545.545,0,0,0,152.673,142.224Z" transform="translate(-133.435 -136.461)"/>
      </g>
    </g>
    <g id="Group_142" data-name="Group 142" transform="translate(0 66.19)">
      <g id="Group_141" data-name="Group 141" transform="translate(0)">
        <path id="Path_120" data-name="Path 120" class="cls-1" d="M16.677,107.288a11.268,11.268,0,0,0-3.581-.629c-6.724,0-12.716,6.989-12.968,7.287a.546.546,0,0,0-.031.665A20.26,20.26,0,0,0,5.1,119.357a.542.542,0,0,0,.755-.154.544.544,0,0,0-.153-.755,19.957,19.957,0,0,1-4.456-4.12c1.256-1.364,6.41-6.578,11.846-6.578a10.215,10.215,0,0,1,3.233.571.538.538,0,0,0,.691-.343A.545.545,0,0,0,16.677,107.288Z" transform="translate(0 -106.659)"/>
      </g>
    </g>
    <g id="Group_144" data-name="Group 144" transform="translate(3.274 64.008)">
      <g id="Group_143" data-name="Group 143" transform="translate(0 0)">
        <path id="Path_121" data-name="Path 121" class="cls-1" d="M83.481,64.168a.546.546,0,0,0-.772,0L64.156,82.721a.546.546,0,0,0,.772.772L83.481,64.939A.546.546,0,0,0,83.481,64.168Z" transform="translate(-63.996 -64.008)"/>
      </g>
    </g>
  </g>
</svg>
